<?xml version="1.0" encoding="UTF-8" standalone="no"?>
<svg width="42px" height="41px" viewBox="0 0 42 41" version="1.1" xmlns="http://www.w3.org/2000/svg" xmlns:xlink="http://www.w3.org/1999/xlink">
    <!-- Generator: Sketch 46.2 (44496) - http://www.bohemiancoding.com/sketch -->
    <title>日历</title>
    <desc>Created with Sketch.</desc>
    <defs></defs>
    <g id="学讯通" stroke="none" stroke-width="1" fill="none" fill-rule="evenodd">
        <g id="我的课程－课表模式" transform="translate(-679.000000, -159.000000)">
            <g id="日历" transform="translate(679.000000, 160.000000)">
                <path d="M4,16 L38,16 L38,33 L38,33 C38,34.6568542 36.6568542,36 35,36 L7,36 L7,36 C5.34314575,36 4,34.6568542 4,33 L4,16 Z" id="Rectangle-5" fill="#C3EDFD"></path>
                <g fill-rule="nonzero" fill="#203152">
                    <g id="日期" transform="translate(0.000000, 2.000000)">
                        <path d="M24.4662095,15 L24.4662095,31.6392175 L19.8234577,31.6392175 L19.8234577,20.7415056 C19.140801,21.2730429 18.4101795,21.7395867 17.6410864,22.1350748 C16.7903927,22.5432955 15.9069063,22.8789391 15,23.1384448 L15,19.3897433 C16.307715,19.0151031 17.5369059,18.4060319 18.6280186,17.5920389 C19.4977173,16.8958729 20.1967283,16.0091678 20.6713854,15 L24.4662095,15 Z" id="Shape"></path>
                        <path d="M41.9160001,6.37176244 C41.9235161,4.6772569 41.2455063,3.05020575 40.0331078,1.85329954 C38.8207092,0.656393338 37.1747047,-0.0108729731 35.4620097,0.000242824237 L6.46805272,0.000242824237 C4.75294059,-0.0145940929 3.10331608,0.65102821 1.88787434,1.84834151 C0.672432587,3.04565481 -0.00749311378,4.67483721 6.23007168e-05,6.37176244 L6.23007169e-05,32.2098143 C0.0111255916,33.7612366 0.646617325,35.2443397 1.76591521,36.3309408 C2.8852131,37.417542 4.39603098,38.018051 5.96405345,37.9995864 L36.0500088,37.9995864 C37.6180311,38.014344 39.1273589,37.4102968 40.2440225,36.3211027 C41.3606862,35.2319086 41.9926216,33.747367 42,32.1959632 L42,8.87881691 L41.9160001,6.37176244 Z M36.0500088,36.1158328 L5.96405345,36.1158328 C3.76587174,36.1235172 1.97547162,34.3707336 1.9600594,32.1959632 L1.9600594,10.9703375 L40.0540029,10.9703375 L40.0540029,32.2098143 C40.0309349,34.3791621 38.2427767,36.123565 36.0500088,36.1158328 Z M2,9 L2,6 C2,3.790861 3.790861,2 6,2 L6,2 L36,2 C38.209139,2 40,3.790861 40,6 L40,6 L40,9 L2,9 Z" id="Shape"></path>
                    </g>
                    <path d="M10.9465617,0.000218587369 L11.2849486,0.000218587369 C11.8083065,-0.00765055884 12.312158,0.197241427 12.6795982,0.56735501 C13.0470384,0.937468594 13.2461277,1.44063186 13.2306731,1.96009966 L13.2306731,5.09590938 C13.2306869,5.60328582 13.0267282,6.08967995 12.6640671,6.44713271 C12.3014061,6.80458547 11.8100459,7.00352455 11.299048,6.99979384 L10.9465617,6.99979384 C10.4331341,7.00729135 9.93812821,6.81001885 9.57240028,6.4521554 C9.20667235,6.09429194 9.0007816,5.6057396 9.00083713,5.09590938 L9.00083713,1.96009966 C8.98538247,1.44063186 9.18447184,0.93746858 9.55191204,0.567354995 C9.91935224,0.197241411 10.4232037,-0.00765057015 10.9465617,0.000218587369 L10.9465617,0.000218587369 Z M21.3378587,0.000218587369 L21.690345,0.000218587369 C22.2088285,-4.12450406e-06 22.7053043,0.208251538 23.0665762,0.577503437 C23.4278481,0.946755335 23.6231202,1.44552729 23.6078706,1.96009966 L23.6078706,5.09590938 C23.6078706,6.14739573 22.7493652,6.99979384 21.690345,6.99979384 L21.3519581,6.99979384 C20.8409464,6.99980756 20.3510673,6.79729976 19.9910534,6.43721868 C19.6310395,6.0771376 19.4306751,5.58927297 19.4344325,5.08191023 L19.4344325,1.96009966 C19.4192423,1.4479472 19.6126017,0.951333389 19.9708073,0.582503541 C20.3290129,0.213673693 20.8218254,0.0037640201 21.3378587,0.000218587369 L21.3378587,0.000218587369 Z M31.7291557,0.000218587369 L32.0675425,0.000218587369 C32.5884677,-0.00380884754 33.088623,0.202774345 33.4529731,0.572454124 C33.8173231,0.942133903 34.0145053,1.44308889 33.9991677,1.96009966 L33.9991677,5.09590938 C33.9991815,5.60328583 33.7952227,6.08967997 33.4325617,6.44713272 C33.0699006,6.80458548 32.5785405,7.00352456 32.0675425,6.99979384 L31.7291557,6.99979384 C31.2181439,6.99980756 30.7282648,6.79729976 30.3682509,6.43721868 C30.0082371,6.0771376 29.8078726,5.58927297 29.81163,5.08191023 L29.81163,1.96009966 C29.7963805,1.44552729 29.9916526,0.946755335 30.3529245,0.577503437 C30.7141964,0.208251538 31.2106722,-4.12450407e-06 31.7291557,0.000218587369 L31.7291557,0.000218587369 Z" id="Shape" stroke="#FFFFFF"></path>
                </g>
            </g>
        </g>
    </g>
</svg>