<?xml version="1.0" encoding="UTF-8" standalone="no"?>
<svg width="46px" height="40px" viewBox="0 0 46 40" version="1.1" xmlns="http://www.w3.org/2000/svg" xmlns:xlink="http://www.w3.org/1999/xlink">
    <!-- Generator: Sketch 46.2 (44496) - http://www.bohemiancoding.com/sketch -->
    <title>课程</title>
    <desc>Created with Sketch.</desc>
    <defs></defs>
    <g id="学讯通" stroke="none" stroke-width="1" fill="none" fill-rule="evenodd">
        <g id="我的课程－日历模式" transform="translate(-674.000000, -162.000000)">
            <g id="课程" transform="translate(674.000000, 162.000000)">
                <g>
                    <rect id="Rectangle-3" fill="#C3EDFD" x="1" y="31" width="15" height="7"></rect>
                    <rect id="Rectangle-3" fill="#C3EDFD" x="31" y="31" width="15" height="7"></rect>
                    <rect id="Rectangle-3" fill="#C3EDFD" x="16" y="22" width="15" height="9"></rect>
                    <rect id="Rectangle-3" fill="#C3EDFD" x="31" y="13" width="13" height="9"></rect>
                    <path d="M31.625,0 C30.8292411,0 30.1875,0.637755102 30.1875,1.42857143 L30.1875,2.85714286 L15.8125,2.85714286 L15.8125,1.42857143 C15.8125,0.637755102 15.1707589,0 14.375,0 C13.5792411,0 12.9375,0.637755102 12.9375,1.42857143 L12.9375,2.85714286 L2.875,2.85714286 C1.28861607,2.85714286 0,4.1377551 0,5.71428571 L0,37.1428571 C0,38.7193878 1.28861607,40 2.875,40 L43.125,40 C44.7113839,40 46,38.7193878 46,37.1428571 L46,5.71428571 C46,4.1377551 44.7113839,2.85714286 43.125,2.85714286 L33.0625,2.85714286 L33.0625,1.42857143 C33.0625,0.637755102 32.4207589,0 31.625,0 Z M31.625,8.57142857 C32.4207589,8.57142857 33.0625,7.93367347 33.0625,7.14285714 L33.0625,5.71428571 L43.125,5.71428571 L43.125,11.4285714 L2.875,11.4285714 L2.875,5.71428571 L12.9375,5.71428571 L12.9375,7.14285714 C12.9375,7.93367347 13.5792411,8.57142857 14.375,8.57142857 C15.1707589,8.57142857 15.8125,7.93367347 15.8125,7.14285714 L15.8125,5.71428571 L30.1875,5.71428571 L30.1875,7.14285714 C30.1875,7.93367347 30.8292411,8.57142857 31.625,8.57142857 Z M2.875,37.1428571 L2.875,14.2857143 L43.125,14.2857143 L43.125,37.1428571 L2.875,37.1428571 Z" id="Shape" fill="#203152" fill-rule="nonzero"></path>
                </g>
                <path d="M2.5,21.5 L45.5,21.5" id="Line-3" stroke="#203152" stroke-linecap="square"></path>
                <path d="M2.5,30.5 L45.5,30.5" id="Line-3" stroke="#203152" stroke-linecap="square"></path>
                <path d="M15.5,14.5 L15.5,39.5" id="Line-4" stroke="#203152" stroke-linecap="square"></path>
                <path d="M30.5,14.5 L30.5,39.5" id="Line-4" stroke="#203152" stroke-linecap="square"></path>
            </g>
        </g>
    </g>
</svg>