<?xml version="1.0" encoding="UTF-8" standalone="no"?>
<svg width="24px" height="23px" viewBox="0 0 24 23" version="1.1" xmlns="http://www.w3.org/2000/svg" xmlns:xlink="http://www.w3.org/1999/xlink">
    <!-- Generator: Sketch 46.2 (44496) - http://www.bohemiancoding.com/sketch -->
    <title>年级</title>
    <desc>Created with Sketch.</desc>
    <defs></defs>
    <g id="学讯通" stroke="none" stroke-width="1" fill="none" fill-rule="evenodd">
        <g id="报告详情" transform="translate(-75.000000, -464.000000)" fill-rule="nonzero" fill="#4682F7">
            <g id="年级" transform="translate(75.000000, 464.000000)">
                <path d="M0.0285234094,0.027988321 L9.24821128,0.027988321 L9.24821128,9.26124887 L0.0285234094,9.26124887 L0.0285234094,0.027988321 Z M12.9360864,0.027988321 L23.9997119,0.027988321 L23.9997119,3.72129254 L12.9360864,3.72129254 L12.9360864,0.027988321 Z M12.9360864,5.56794465 L23.9997119,5.56794465 L23.9997119,9.26124887 L12.9360864,9.26124887 L12.9360864,5.56794465 Z M12.9360864,12.9545531 L23.9997119,12.9545531 L23.9997119,16.6478573 L12.9360864,16.6478573 L12.9360864,12.9545531 Z M12.9360864,18.4945094 L23.9997119,18.4945094 L23.9997119,22.1878136 L12.9360864,22.1878136 L12.9360864,18.4945094 Z M0.0285234094,12.9545531 L9.24821128,12.9545531 L9.24821128,22.1878136 L0.0285234094,22.1878136 L0.0285234094,12.9545531 Z" id="Shape"></path>
            </g>
        </g>
    </g>
</svg>