<?xml version="1.0" encoding="UTF-8" standalone="no"?>
<svg width="24px" height="24px" viewBox="0 0 24 24" version="1.1" xmlns="http://www.w3.org/2000/svg" xmlns:xlink="http://www.w3.org/1999/xlink">
    <!-- Generator: Sketch 46.2 (44496) - http://www.bohemiancoding.com/sketch -->
    <title>学科</title>
    <desc>Created with Sketch.</desc>
    <defs></defs>
    <g id="学讯通" stroke="none" stroke-width="1" fill="none" fill-rule="evenodd">
        <g id="报告详情" transform="translate(-75.000000, -409.000000)" fill-rule="nonzero" fill="#4682F7">
            <g id="学科" transform="translate(75.000000, 409.000000)">
                <path d="M23.9739936,4.61504025 C23.9739936,3.33042563 22.088003,3.38395123 22.088003,4.61504025 L22.088003,21.3150302 C22.088003,21.7432351 21.7416608,22.0895773 21.313456,22.0895773 L4.34268935,22.0895773 C3.21865157,22.0864287 1.90884843,21.1827905 1.90884843,19.6053593 C1.90884843,18.260922 2.83452662,17.1211414 3.92707874,17.1211414 L19.3928312,17.1211414 C19.9123444,17.1211414 20.3342522,16.6992336 20.3342522,16.1797203 L20.3342522,0.969001692 C20.3342522,0.449488431 19.915493,0.0244321231 19.3928312,0.0244321231 C19.3928312,0.0244321231 19.3928312,0.0244321231 19.3896826,0.0244321231 L19.3896826,0.0244321231 L19.3865341,0.0244321231 L5.6965724,0.0244321231 C2.57004711,0.0244321231 0.0260064,2.56847283 0.0260064,5.69499812 L0.0260064,19.6525878 C0.0260064,19.7911247 0.129909046,20.5593746 0.133057631,20.5877117 C0.532925415,22.5240793 2.07887095,23.9724193 3.93022729,23.9724193 L21.3166045,23.9724193 C22.7838359,23.9692708 23.9739936,22.7822617 23.9771422,21.3118817 L23.9771422,4.61504025 L23.9739936,4.61504025 Z" id="Shape"></path>
                <path d="M19.3959797,18.6639383 L6.20663997,18.6639383 C4.90628252,18.6639383 4.96925385,20.5499289 6.20663997,20.5499289 L19.3959798,20.5499289 C20.6113259,20.5499289 20.7215257,18.6639383 19.3959797,18.6639383 Z" id="Shape"></path>
            </g>
        </g>
    </g>
</svg>