<?xml version="1.0" encoding="UTF-8" standalone="no"?>
<svg width="433px" height="354px" viewBox="0 0 433 354" version="1.1" xmlns="http://www.w3.org/2000/svg" xmlns:xlink="http://www.w3.org/1999/xlink">
    <!-- Generator: Sketch 46.2 (44496) - http://www.bohemiancoding.com/sketch -->
    <title>Group 5</title>
    <desc>Created with Sketch.</desc>
    <defs></defs>
    <g id="学讯通" stroke="none" stroke-width="1" fill="none" fill-rule="evenodd">
        <g id="我的课程－课表模式－无课" transform="translate(-210.000000, -450.000000)">
            <g id="Group-5" transform="translate(210.000000, 449.000000)">
                <circle id="Oval-3" stroke="#B8C1CE" stroke-width="4" cx="370.5" cy="52.5" r="7.5"></circle>
                <circle id="Oval-3" stroke="#B8C1CE" stroke-width="4" cx="126.5" cy="33.5" r="6.5"></circle>
                <text id="空-空-空-空-空" opacity="0.5" font-family="PingFangSC-Regular, PingFang SC" font-size="26" font-weight="normal" line-spacing="28" fill="#B8C1CE">
                    <tspan x="52" y="53">空</tspan>
                    <tspan x="52" y="81">空</tspan>
                    <tspan x="52" y="109">空</tspan>
                    <tspan x="52" y="137">空</tspan>
                    <tspan x="52" y="165">空</tspan>
                </text>
                <text id="没-有-课-休-息-一-下-吧" opacity="0.5" font-family="PingFangSC-Regular, PingFang SC" font-size="26" font-weight="normal" line-spacing="28" fill="#B8C1CE">
                    <tspan x="0" y="129">没</tspan>
                    <tspan x="0" y="157">有</tspan>
                    <tspan x="0" y="185">课</tspan>
                    <tspan x="1.872" y="214.752"></tspan>
                    <tspan x="0" y="241">休</tspan>
                    <tspan x="0" y="269">息</tspan>
                    <tspan x="0" y="297">一</tspan>
                    <tspan x="0" y="325">下</tspan>
                    <tspan x="0" y="353">吧</tspan>
                </text>
                <text id="温-习-下-功-课-也-不-错-哦" opacity="0.5" font-family="PingFangSC-Regular, PingFang SC" font-size="26" font-weight="normal" line-spacing="28" fill="#B8C1CE">
                    <tspan x="407" y="123">温</tspan>
                    <tspan x="407" y="151">习</tspan>
                    <tspan x="407" y="179">下</tspan>
                    <tspan x="407" y="207">功</tspan>
                    <tspan x="407" y="235">课</tspan>
                    <tspan x="407" y="263">也</tspan>
                    <tspan x="407" y="291">不</tspan>
                    <tspan x="407" y="319">错</tspan>
                    <tspan x="407" y="347">哦</tspan>
                </text>
                <text id="空-空" opacity="0.5" font-family="PingFangSC-Regular, PingFang SC" font-size="26" font-weight="normal" line-spacing="28" fill="#B8C1CE">
                    <tspan x="187" y="28">空</tspan>
                    <tspan x="187" y="56">空</tspan>
                </text>
                <text id="空-空" opacity="0.5" font-family="PingFangSC-Regular, PingFang SC" font-size="26" font-weight="normal" line-spacing="28" fill="#B8C1CE">
                    <tspan x="346" y="306">空</tspan>
                    <tspan x="346" y="334">空</tspan>
                </text>
                <text id="空-空-空" opacity="0.5" font-family="PingFangSC-Regular, PingFang SC" font-size="26" font-weight="normal" line-spacing="28" fill="#B8C1CE">
                    <tspan x="294" y="31">空</tspan>
                    <tspan x="294" y="59">空</tspan>
                    <tspan x="294" y="87">空</tspan>
                </text>
                <text id="空-空-空" opacity="0.5" font-family="PingFangSC-Regular, PingFang SC" font-size="26" font-weight="normal" line-spacing="28" fill="#B8C1CE">
                    <tspan x="65" y="279">空</tspan>
                    <tspan x="65" y="307">空</tspan>
                    <tspan x="65" y="335">空</tspan>
                </text>
                <text id="空-空-空-空-空" opacity="0.5" font-family="PingFangSC-Regular, PingFang SC" font-size="26" font-weight="normal" line-spacing="28" fill="#B8C1CE">
                    <tspan x="359" y="121">空</tspan>
                    <tspan x="359" y="149">空</tspan>
                    <tspan x="359" y="177">空</tspan>
                    <tspan x="359" y="205">空</tspan>
                    <tspan x="359" y="233">空</tspan>
                </text>
                <polygon id="Polygon-3" stroke="#B8C1CE" stroke-width="4" stroke-linecap="round" stroke-linejoin="round" transform="translate(13.340662, 64.670331) rotate(18.000000) translate(-13.340662, -64.670331) " points="13.3406616 55.6703308 21.9001702 61.8891778 18.6307289 71.9514837 8.05059433 71.9514837 4.78115295 61.8891778"></polygon>
                <g id="Group-4" transform="translate(412.000000, 60.000000)" fill="#B8C1CE">
                    <rect id="Rectangle-33" x="0" y="7" width="21" height="7" rx="3.5"></rect>
                    <rect id="Rectangle-33" transform="translate(10.500000, 10.500000) rotate(-270.000000) translate(-10.500000, -10.500000) " x="0" y="7" width="21" height="7" rx="3.5"></rect>
                </g>
                <g id="Group-4" transform="translate(54.000000, 197.000000)" fill="#B8C1CE">
                    <rect id="Rectangle-33" x="0" y="7" width="21" height="7" rx="3.5"></rect>
                    <rect id="Rectangle-33" transform="translate(10.500000, 10.500000) rotate(-270.000000) translate(-10.500000, -10.500000) " x="0" y="7" width="21" height="7" rx="3.5"></rect>
                </g>
                <g id="Group" transform="translate(102.000000, 84.000000)">
                    <g id="课程" fill-rule="nonzero" fill="#B8C1CE">
                        <path d="M158.8125,0 C154.816406,0 151.59375,3.20471939 151.59375,7.17857143 L151.59375,14.3571429 L79.40625,14.3571429 L79.40625,7.17857143 C79.40625,3.20471939 76.1835938,0 72.1875,0 C68.1914063,0 64.96875,3.20471939 64.96875,7.17857143 L64.96875,14.3571429 L14.4375,14.3571429 C6.47109375,14.3571429 0,20.7922194 0,28.7142857 L0,186.642857 C0,194.564923 6.47109375,201 14.4375,201 L216.5625,201 C224.528906,201 231,194.564923 231,186.642857 L231,28.7142857 C231,20.7922194 224.528906,14.3571429 216.5625,14.3571429 L166.03125,14.3571429 L166.03125,7.17857143 C166.03125,3.20471939 162.808594,0 158.8125,0 Z M158.8125,43.0714286 C162.808594,43.0714286 166.03125,39.8667092 166.03125,35.8928571 L166.03125,22.9092316 L208.355603,22.9092316 L208.355603,22.9092316 C216.08759,22.9092316 222.355603,29.1772451 222.355603,36.9092316 L222.355603,63.2336256 L8.64439655,63.2336256 L8.64439655,36.9092316 L8.64439655,36.9092316 C8.64439655,29.1772451 14.9124101,22.9092316 22.6443966,22.9092316 L64.96875,22.9092316 L64.96875,35.8928571 C64.96875,39.8667092 68.1914063,43.0714286 72.1875,43.0714286 C76.1835938,43.0714286 79.40625,39.8667092 79.40625,35.8928571 L79.40625,22.9092316 L151.59375,22.9092316 L151.59375,35.8928571 C151.59375,39.8667092 154.816406,43.0714286 158.8125,43.0714286 Z M9.02909483,177.893068 L9.02909483,70.8892937 L221.970905,70.8892937 L221.970905,177.893068 L221.970905,177.893068 C221.970905,185.625055 215.702892,191.893068 207.970905,191.893068 L23.0290948,191.893068 L23.0290948,191.893068 C15.2971083,191.893068 9.02909483,185.625055 9.02909483,177.893068 Z" id="Shape"></path>
                    </g>
                    <g id="Group-3" transform="translate(64.000000, 99.000000)" fill="#B8C1CE">
                        <circle id="Oval-2" cx="8.5" cy="8.5" r="8.5"></circle>
                        <circle id="Oval-2" cx="95.5" cy="8.5" r="8.5"></circle>
                    </g>
                    <ellipse id="Oval-13" fill="#B8C1CE" opacity="0.3" cx="115.5" cy="261.5" rx="57.5" ry="9.5"></ellipse>
                    <polygon id="Path-38" stroke="#B8C1CE" stroke-width="4" stroke-linecap="round" stroke-linejoin="round" points="99 131 131 131 115 162"></polygon>
                    <path d="M68,79 C58,90.3333333 47.3333333,96.3333333 36,97" id="Path-39" stroke="#B8C1CE" stroke-width="4" stroke-linecap="round" stroke-linejoin="round"></path>
                </g>
            </g>
        </g>
    </g>
</svg>