<?xml version="1.0" encoding="UTF-8" standalone="no"?>
<svg width="24px" height="28px" viewBox="0 0 24 28" version="1.1" xmlns="http://www.w3.org/2000/svg" xmlns:xlink="http://www.w3.org/1999/xlink">
    <!-- Generator: Sketch 46.2 (44496) - http://www.bohemiancoding.com/sketch -->
    <title>定位-2</title>
    <desc>Created with Sketch.</desc>
    <defs></defs>
    <g id="学讯通" stroke="none" stroke-width="1" fill="none" fill-rule="evenodd">
        <g id="报告详情" transform="translate(-75.000000, -623.000000)" fill-rule="nonzero" fill="#4682F7">
            <g id="定位-2" transform="translate(75.000000, 623.000000)">
                <path d="M11.9406857,27.9995332 C11.5440252,28.0040888 11.1621539,27.8480979 10.8807469,27.5665581 L5.64104949,22.3305808 C0.746072841,19.2498599 -1.27688951,13.0960872 0.825798876,7.68277594 C2.92848726,2.26946465 8.56086957,-0.869111355 14.2325399,0.212033834 C19.9042102,1.29317902 24.007669,6.28762062 23.9999892,12.1002867 C23.9955966,16.4127084 21.70913,20.3958932 18.0003357,22.5521029 L13.0006245,27.5866965 C12.7159552,27.8608741 12.334481,28.0094549 11.9406857,27.9995332 L11.9406857,27.9995332 Z M12,17 C14.7614237,17 17,14.7614237 17,12 C17,9.23857625 14.7614237,7 12,7 C9.23857625,7 7,9.23857625 7,12 C7,14.7614237 9.23857625,17 12,17 Z" id="Combined-Shape"></path>
            </g>
        </g>
    </g>
</svg>