<?xml version="1.0" encoding="UTF-8" standalone="no"?>
<svg width="24px" height="29px" viewBox="0 0 24 29" version="1.1" xmlns="http://www.w3.org/2000/svg" xmlns:xlink="http://www.w3.org/1999/xlink">
    <!-- Generator: Sketch 46.2 (44496) - http://www.bohemiancoding.com/sketch -->
    <title>椅子</title>
    <desc>Created with Sketch.</desc>
    <defs></defs>
    <g id="学讯通" stroke="none" stroke-width="1" fill="none" fill-rule="evenodd">
        <g id="报告详情" transform="translate(-75.000000, -677.000000)" fill-rule="nonzero" fill="#4682F7">
            <g id="椅子" transform="translate(75.000000, 677.000000)">
                <path d="M22.9847411,27.2893635 L19.4053476,28.6294525 L15.2752107,19.6648058 C14.2350345,19.644547 9.97240869,19.5733795 9.03419773,19.5733795 L4.59825309,28.324873 L1.08003866,26.8630132 L4.99598297,19.3297944 C4.13934411,19.1268141 3.40002,18.7866944 2.77796679,18.3095227 C2.15586973,17.8323509 0.284622771,16.2307758 0.284622771,14.2586928 C0.284622771,13.3721985 0.0398625429,2.87277803 0.0398625429,2.87277803 C0.0398625429,2.48698884 0.0398625429,0.00979106133 2.9156307,0.00979106133 C5.73000051,0.00979106133 5.770962,2.36517449 5.79135501,2.75096367 C5.79135501,2.75096367 5.8219665,9.19776418 5.8219665,9.88808926 C5.8219665,11.2688268 6.16360457,12.2993152 6.84683691,12.9795109 C7.5301131,13.6597503 8.62638103,13.99987 10.1356407,13.99987 C10.1356407,13.99987 19.6093218,14.0608208 21.1185815,14.0608208 C21.5060929,14.0608208 23.9637382,14.1416811 23.9637382,16.8933324 C23.9637382,19.4488582 21.5060929,19.7562757 21.1185815,19.7562757 L19.4053476,19.7562757 L22.9847411,27.2893635 Z" id="Shape"></path>
            </g>
        </g>
    </g>
</svg>