<?xml version="1.0" encoding="UTF-8" standalone="no"?>
<svg width="24px" height="28px" viewBox="0 0 24 28" version="1.1" xmlns="http://www.w3.org/2000/svg" xmlns:xlink="http://www.w3.org/1999/xlink">
    <!-- Generator: Sketch 46.2 (44496) - http://www.bohemiancoding.com/sketch -->
    <title>老师</title>
    <desc>Created with Sketch.</desc>
    <defs></defs>
    <g id="学讯通" stroke="none" stroke-width="1" fill="none" fill-rule="evenodd">
        <g id="报告详情" transform="translate(-75.000000, -515.000000)" fill-rule="nonzero" fill="#4682F7">
            <path d="M87,528.585984 C83.0742156,528.585984 79.8818554,525.539449 79.8818554,521.792992 C79.8818554,518.046535 83.0742156,515 87,515 C90.9257844,515 94.1181446,518.046535 94.1181446,521.792992 C94.1181446,525.536324 90.9257844,528.585984 87,528.585984 L87,528.585984 Z M76.777899,543 L75,543 L75,537.619351 C75,534.010378 78.0777626,531.073206 81.8594816,531.073206 L92.1405184,531.073206 C95.9222374,531.073206 99,534.010378 99,537.619351 L99,542.896887 L97.222101,542.896887 L76.777899,543 L76.777899,543 Z" id="老师"></path>
        </g>
    </g>
</svg>