<?xml version="1.0" encoding="UTF-8" standalone="no"?>
<svg width="24px" height="24px" viewBox="0 0 24 24" version="1.1" xmlns="http://www.w3.org/2000/svg" xmlns:xlink="http://www.w3.org/1999/xlink">
    <!-- Generator: Sketch 46.2 (44496) - http://www.bohemiancoding.com/sketch -->
    <title>时间-2</title>
    <desc>Created with Sketch.</desc>
    <defs></defs>
    <g id="学讯通" stroke="none" stroke-width="1" fill="none" fill-rule="evenodd">
        <g id="报告详情" transform="translate(-75.000000, -571.000000)" fill-rule="nonzero" fill="#4682F7">
            <g id="时间-2" transform="translate(75.000000, 571.000000)">
                <path d="M12.0060752,0.0265631941 C5.38517086,0.0265631941 0.0178807675,5.38725957 0.0178807675,12.0000302 C0.0178807675,18.6127706 5.38517086,23.9734971 12.0060752,23.9734971 C18.6269494,23.9734971 23.9942697,18.6127706 23.9942697,12.0000302 C23.9942395,5.38725957 18.6269494,0.0265631941 12.0060752,0.0265631941 Z M2.38458034,12.848444 C1.9116996,12.848444 1.52829585,12.4655113 1.52829585,11.9931813 C1.52829585,11.5208212 1.9116996,11.1378884 2.38458034,11.1378884 C2.85752151,11.1378884 3.24089506,11.5208212 3.24089506,11.9931813 C3.24092525,12.4655113 2.85752151,12.848444 2.38458034,12.848444 Z M12.006045,1.5351227 C12.4789862,1.5351227 12.86239,1.91805544 12.86239,2.3904156 C12.86239,2.86274559 12.4790164,3.24567833 12.006045,3.24567833 C11.5331643,3.24567833 11.1497606,2.86274559 11.1497606,2.3904156 C11.1497606,1.91802528 11.5331643,1.5351227 12.006045,1.5351227 Z M12.006045,22.5456456 C11.5331643,22.5456456 11.1497606,22.1627128 11.1497606,21.6903829 C11.1497606,21.2180227 11.5331643,20.83509 12.006045,20.83509 C12.4789862,20.83509 12.86239,21.2179925 12.86239,21.6903829 C12.8623598,22.1627128 12.4789862,22.5456456 12.006045,22.5456456 Z M19.042948,6.84947614 L14.4236456,11.1613918 C14.7900421,12.0872853 14.5985215,13.1824391 13.8487514,13.9313182 C12.8414858,14.9373464 11.2083647,14.9373464 10.2010991,13.9313182 C9.44845928,13.1796332 9.25829804,12.0789882 9.63037367,11.1508319 L6.45085937,8.27693549 C6.05470772,7.88127052 6.05473792,7.23980082 6.45082917,6.8441962 C6.84698081,6.44853122 7.48923953,6.44853122 7.88536097,6.8441962 L11.0649055,9.71809256 C11.6832694,9.47083967 12.3780301,9.47213702 12.9954878,9.72219585 L17.6083558,5.41667652 C18.0044773,5.02104171 18.6467964,5.02104171 19.0429178,5.41667652 C19.4390694,5.81234146 19.4390694,6.45381114 19.042948,6.84947614 Z M21.6275098,12.8552627 C21.154629,12.8552627 20.7712253,12.4723602 20.7712253,12.0000302 C20.7712253,11.52767 21.1545988,11.1447373 21.6275098,11.1447373 C22.100451,11.1447373 22.4838547,11.52767 22.4838547,12.0000302 C22.4838245,12.47233 22.1004509,12.8552627 21.6275098,12.8552627 Z" id="Shape"></path>
            </g>
        </g>
    </g>
</svg>